<svg xmlns="http://www.w3.org/2000/svg" viewBox="0 0 32 32">
  <!-- Background -->
  <rect width="32" height="32" fill="white"/>
  <!-- Leaf 1 -->
  <path d="M16 4c-4 0-8 4-8 8c0 2 1 3 2 4c2-4 5-7 9-8c-1-2-2-4-3-4z" fill="#3D7A3D"/>
  <!-- Leaf 2 -->
  <path d="M20 6c-2 0-4 2-4 4c0 1 0.5 2 1 2.5c1-2 3-4 5-4.5c-0.5-1-1-2-2-2z" fill="#4A8F4A"/>
  <!-- M letter simplified -->
  <path d="M6 28v-10l4 5l4-5v10h-2v-6l-2 3l-2-3v6z" fill="#1a1a1a"/>
  <!-- A letter simplified -->
  <path d="M20 28v-10l3 10h2l-4-12h-2l-4 12h2l1-4h3z" fill="#1a1a1a"/>
</svg>
